<svg width="32" height="32" viewBox="0 0 32 32" fill="none" xmlns="http://www.w3.org/2000/svg">
<path d="M0 23.628V8.37222C0 3.76483 3.76471 0.00012207 8.37209 0.00012207H23.6279C28.2353 0.00012207 32 3.76483 32 8.37222V23.628C32 28.2354 28.2353 32.0001 23.6279 32.0001H18.4952L15.814 31.3435L13.5048 32.0001H8.37209C3.76471 32.0001 0 28.2354 0 23.628Z" fill="#3C5065"/>
<path d="M22.229 21.1547L22.9403 16.5255H18.4971V13.5268C18.4971 12.2573 19.1209 11.0316 21.1018 11.0316H23.1154V7.09182C23.1154 7.09182 21.2878 6.77444 19.5368 6.77444C15.8815 6.77444 13.4957 8.98511 13.4957 13.0015V16.5255H9.43555V21.1547H13.4957V32.0002H18.4971V21.1547H22.229Z" fill="white"/>
</svg>
