<svg width="64" height="64" viewBox="0 0 64 64" fill="none" xmlns="http://www.w3.org/2000/svg">
<rect width="64" height="64" rx="10" fill="#042046"/>
<circle cx="21.4446" cy="45.6287" r="5.15943" fill="#027DA2"/>
<path d="M16.293 18.4535C16.293 15.5587 18.6397 13.2119 21.5346 13.2119H42.4728C45.3677 13.2119 47.7144 15.5587 47.7144 18.4535C47.7144 21.3484 45.3677 23.6951 42.4728 23.6951H21.5346C18.6397 23.6951 16.293 21.3484 16.293 18.4535Z" fill="#00B3B7"/>
<path d="M16.293 31.9648C16.293 29.0699 18.6397 26.7231 21.5346 26.7231H31.6795C34.5744 26.7231 36.9211 29.0699 36.9211 31.9648C36.9211 34.8596 34.5744 37.2064 31.6795 37.2064H21.5346C18.6397 37.2064 16.293 34.8596 16.293 31.9648Z" fill="#04D9DE"/>
</svg>
