<svg width="20" height="20" viewBox="0 0 20 20" fill="none" xmlns="http://www.w3.org/2000/svg">
<g clip-path="url(#clip0_392_1782)">
<path d="M18.1708 8.33332C18.5513 10.2011 18.2801 12.1428 17.4023 13.8348C16.5245 15.5268 15.0932 16.8667 13.347 17.6311C11.6009 18.3955 9.64545 18.5381 7.80684 18.0353C5.96823 17.5325 4.35758 16.4145 3.24349 14.8678C2.12939 13.3212 1.57919 11.4394 1.68464 9.53615C1.79009 7.63294 2.54482 5.8234 3.82297 4.4093C5.10111 2.9952 6.82541 2.06202 8.70831 1.76537C10.5912 1.46872 12.5189 1.82654 14.1699 2.77916" stroke="#22C55E" stroke-width="1.66667" stroke-linecap="round" stroke-linejoin="round"/>
<path d="M7.5 9.16671L10 11.6667L18.3333 3.33337" stroke="#22C55E" stroke-width="1.66667" stroke-linecap="round" stroke-linejoin="round"/>
</g>
<defs>
<clipPath id="clip0_392_1782">
<rect width="20" height="20" fill="white"/>
</clipPath>
</defs>
</svg>
