<svg width="32" height="32" viewBox="0 0 32 32" fill="none" xmlns="http://www.w3.org/2000/svg">
<path d="M0 23.628V8.37222C0 3.76483 3.76471 0.00012207 8.37209 0.00012207H23.6279C28.2353 0.00012207 32 3.76483 32 8.37222V23.628C32 28.2354 28.2353 32.0001 23.6279 32.0001H8.37209C3.76471 32.0001 0 28.2354 0 23.628Z" fill="#3C5065"/>
<path d="M20.9674 9.96977C20.3655 9.96977 19.873 10.4622 19.873 11.0751C19.873 11.688 20.3655 12.1804 20.9674 12.1804C21.5803 12.1804 22.0728 11.688 22.0728 11.0751C22.0618 10.4622 21.5803 9.96977 20.9674 9.96977Z" fill="white"/>
<path d="M16.0754 11.3817C13.5254 11.3817 11.457 13.4501 11.457 16C11.457 18.55 13.5254 20.6184 16.0754 20.6184C18.6253 20.6184 20.6937 18.55 20.6937 16C20.6937 13.4501 18.6253 11.3817 16.0754 11.3817ZM16.0754 18.9658C14.4447 18.9658 13.1205 17.6416 13.1205 16.011C13.1205 14.3803 14.4447 13.0561 16.0754 13.0561C17.706 13.0561 19.0302 14.3803 19.0302 16.011C19.0302 17.6416 17.706 18.9658 16.0754 18.9658Z" fill="white"/>
<path d="M19.7428 25.3789H12.2572C9.14914 25.3789 6.62109 22.8509 6.62109 19.7428V12.2571C6.62109 9.14908 9.14914 6.62103 12.2572 6.62103H19.7428C22.8509 6.62103 25.379 9.14908 25.379 12.2571V19.7428C25.379 22.8509 22.8509 25.3789 19.7428 25.3789ZM12.2572 8.383C10.1231 8.383 8.38306 10.1231 8.38306 12.2571V19.7428C8.38306 21.8769 10.1231 23.6169 12.2572 23.6169H19.7428C21.8769 23.6169 23.617 21.8769 23.617 19.7428V12.2571C23.617 10.1231 21.8769 8.383 19.7428 8.383H12.2572Z" fill="white"/>
</svg>
