<svg width="32" height="32" viewBox="0 0 32 32" fill="none" xmlns="http://www.w3.org/2000/svg">
<g clip-path="url(#clip0_2409_12601)">
<path d="M0 23.628V8.37222C0 3.76483 3.76471 0.00012207 8.37209 0.00012207H23.6279C28.2353 0.00012207 32 3.76483 32 8.37222V23.628C32 28.2354 28.2353 32.0001 23.6279 32.0001H8.37209C3.76471 32.0001 0 28.2354 0 23.628Z" fill="#3C5065"/>
<path d="M9.29166 13.0234H12.3888V22.9823H9.29166V13.0234ZM10.8457 8.07671C11.8416 8.07671 12.6405 8.87561 12.6405 9.87151C12.6405 10.8565 11.8416 11.6663 10.8457 11.6663C9.8498 11.6663 9.05089 10.8565 9.05089 9.87151C9.03995 8.87561 9.8498 8.07671 10.8457 8.07671Z" fill="white"/>
<path d="M14.3359 13.0234H17.3017V14.3804H17.3455C17.7614 13.5924 18.7682 12.7717 20.2785 12.7717C23.4084 12.7717 23.9885 14.8291 23.9885 17.5104V22.9823H20.8913V18.1451C20.8913 16.9851 20.8695 15.5076 19.2826 15.5076C17.6738 15.5076 17.4221 16.7662 17.4221 18.0685V22.9823H14.3359V13.0234Z" fill="white"/>
</g>
<defs>
<clipPath id="clip0_2409_12601">
<rect width="32" height="32" fill="white"/>
</clipPath>
</defs>
</svg>
