<svg width="173" height="42" viewBox="0 0 173 42" fill="none" xmlns="http://www.w3.org/2000/svg">
<ellipse cx="3.60336" cy="23.3082" rx="3.60336" ry="3.70976" fill="#035075"/>
<path d="M0.0078125 3.76886C0.0078125 1.68738 1.64679 0 3.66857 0H18.2919C20.3136 0 21.9526 1.68738 21.9526 3.76886C21.9526 5.85034 20.3136 7.53772 18.2919 7.53772H3.66857C1.64679 7.53772 0.0078125 5.85034 0.0078125 3.76886Z" fill="#027DA2"/>
<path d="M0.0078125 13.4835C0.0078125 11.402 1.64679 9.7146 3.66857 9.7146H10.7538C12.7756 9.7146 14.4146 11.402 14.4146 13.4835C14.4146 15.5649 12.7756 17.2523 10.7538 17.2523H3.66857C1.64679 17.2523 0.0078125 15.5649 0.0078125 13.4835Z" fill="#00B3B7"/>
<path d="M172.845 19.709H159.455C159.955 21.8619 161.765 23.2115 164.231 23.2115C165.947 23.2115 166.977 22.7295 168.038 21.4442H172.564C172.283 22.3439 171.846 23.083 171.191 23.9184C169.381 26.1035 167.165 27.1317 164.324 27.1317C159.05 27.1317 154.961 23.083 154.961 17.8775C154.961 12.6398 158.987 8.49463 164.075 8.49463C169.225 8.49463 173.001 12.5434 173.001 18.0703C173.001 18.7129 172.97 19.0985 172.845 19.709ZM159.331 15.9495H168.912C168.382 13.668 166.696 12.4148 164.137 12.4148C161.671 12.4148 159.986 13.6359 159.331 15.9495Z" fill="#04294F"/>
<path d="M146.172 26.714V8.91236H149.98V10.6475C151.072 8.97662 151.946 8.49463 153.725 8.49463H154.037V12.6076C151.54 12.6719 150.323 14.0536 150.323 16.8171V26.714H146.172Z" fill="#04294F"/>
<path d="M142.798 8.91236V26.714H138.99V24.4004C137.336 26.3606 135.681 27.1317 133.247 27.1317C128.191 27.1317 124.539 23.2437 124.539 17.8775C124.539 12.447 128.222 8.49463 133.341 8.49463C135.838 8.49463 137.554 9.33009 138.99 11.2902V8.91236H142.798ZM133.715 12.4148C130.813 12.4148 128.721 14.7606 128.721 17.9739C128.721 21.0907 130.813 23.2115 133.84 23.2115C136.836 23.2115 138.865 21.0586 138.865 17.8775C138.865 14.6642 136.743 12.4148 133.715 12.4148Z" fill="#04294F"/>
<path d="M106.352 26.714L100.172 8.91235H104.635L107.725 19.7733L110.628 8.91235H113.936L116.776 19.7733L119.929 8.91235H124.361L118.118 26.714H115.528L112.251 15.1783L108.911 26.714H106.352Z" fill="#04294F"/>
<path d="M98.3837 2.96777V26.714H94.5759V24.4005C92.8905 26.3284 91.2051 27.1318 88.8642 27.1318C83.9641 27.1318 80.1875 23.083 80.1875 17.7811C80.1875 12.447 83.9953 8.26971 88.833 8.26971C91.0178 8.26971 93.0153 9.10517 94.2326 10.4869V2.96777H98.3837ZM89.3636 12.1899C86.5546 12.1899 84.3698 14.5678 84.3698 17.6525C84.3698 20.7694 86.6482 23.2115 89.5197 23.2115C92.3287 23.2115 94.5447 20.8016 94.5447 17.7489C94.5447 14.5356 92.3599 12.1899 89.3636 12.1899Z" fill="#04294F"/>
<path d="M69.3479 8.49463C74.3729 8.49463 78.4616 12.704 78.4616 17.8453C78.4616 22.9545 74.3417 27.1317 69.2855 27.1317C64.198 27.1317 60.0781 22.9545 60.0781 17.8453C60.0781 12.6398 64.1668 8.49463 69.3479 8.49463ZM69.1918 12.4148C66.5077 12.4148 64.2604 14.857 64.2604 17.8132C64.2604 20.8016 66.5077 23.2115 69.2542 23.2115C72.0321 23.2115 74.2793 20.8016 74.2793 17.8453C74.2793 14.7927 72.0321 12.4148 69.1918 12.4148Z" fill="#04294F"/>
<path d="M49.2307 8.49463C54.2557 8.49463 58.3444 12.704 58.3444 17.8453C58.3444 22.9545 54.2245 27.1317 49.1683 27.1317C44.0808 27.1317 39.9609 22.9545 39.9609 17.8453C39.9609 12.6398 44.0496 8.49463 49.2307 8.49463ZM49.0746 12.4148C46.3905 12.4148 44.1433 14.857 44.1433 17.8132C44.1433 20.8016 46.3905 23.2115 49.1371 23.2115C51.9149 23.2115 54.1621 20.8016 54.1621 17.8453C54.1621 14.7927 51.9149 12.4148 49.0746 12.4148Z" fill="#04294F"/>
<path d="M26 26.714V2.96777H37.7355V7.17719H30.2759V12.7683H37.3921V16.9777H30.2759V26.714H26Z" fill="#04294F"/>
<path d="M169.607 40.0018C169.293 40.0018 169.024 39.9659 168.802 39.894C168.579 39.8222 168.395 39.7462 168.25 39.666L168.339 38.8783C168.476 38.9751 168.649 39.069 168.858 39.1602C169.07 39.2487 169.309 39.2929 169.575 39.2929C169.806 39.2929 169.982 39.2542 170.102 39.1768C170.226 39.0967 170.288 38.9792 170.288 38.8244C170.288 38.6973 170.251 38.595 170.179 38.5176C170.106 38.4375 170.011 38.3712 169.893 38.3186C169.775 38.2661 169.65 38.2178 169.518 38.1735C169.312 38.1044 169.116 38.0243 168.931 37.9331C168.748 37.8419 168.599 37.7203 168.484 37.5683C168.371 37.4135 168.314 37.209 168.314 36.9547C168.314 36.7336 168.368 36.5304 168.476 36.3453C168.583 36.1601 168.745 36.0136 168.963 35.9058C169.183 35.7953 169.462 35.74 169.8 35.74C170.058 35.74 170.277 35.769 170.457 35.8271C170.639 35.8823 170.802 35.9487 170.944 36.026L170.855 36.793C170.713 36.6797 170.559 36.5857 170.392 36.5111C170.229 36.4337 170.037 36.395 169.816 36.395C169.612 36.395 169.45 36.4365 169.329 36.5194C169.208 36.5995 169.148 36.7225 169.148 36.8884C169.148 37.0652 169.219 37.1938 169.361 37.2739C169.504 37.3541 169.725 37.4467 170.026 37.5517C170.163 37.5987 170.297 37.6553 170.429 37.7217C170.56 37.7852 170.68 37.8626 170.787 37.9538C170.897 38.045 170.984 38.1583 171.049 38.2938C171.113 38.4292 171.145 38.5909 171.145 38.7788C171.145 38.9944 171.094 39.1948 170.992 39.38C170.893 39.5651 170.731 39.7158 170.505 39.8318C170.282 39.9452 169.983 40.0018 169.607 40.0018Z" fill="#04294F"/>
<path d="M166.174 40.0018C165.699 40.0018 165.302 39.9037 164.982 39.7075C164.663 39.5085 164.421 39.2459 164.257 38.9198C164.096 38.5909 164.016 38.2316 164.016 37.8419C164.016 37.4632 164.091 37.115 164.241 36.7972C164.394 36.4793 164.616 36.225 164.906 36.0343C165.198 35.8409 165.551 35.7441 165.965 35.7441C166.316 35.7441 166.621 35.8174 166.879 35.9639C167.136 36.1103 167.334 36.3149 167.471 36.5774C167.61 36.84 167.68 37.1468 167.68 37.4978C167.68 37.5696 167.676 37.6443 167.668 37.7217C167.663 37.799 167.652 37.8806 167.636 37.9663H164.885C164.92 38.2896 165.004 38.5467 165.135 38.7374C165.267 38.9253 165.43 39.0594 165.626 39.1395C165.822 39.2197 166.034 39.2597 166.263 39.2597C166.467 39.2597 166.668 39.2362 166.867 39.1893C167.065 39.1395 167.252 39.069 167.426 38.9778L167.503 39.6867C167.35 39.7614 167.162 39.8332 166.939 39.9023C166.716 39.9687 166.461 40.0018 166.174 40.0018ZM164.934 37.3734H166.818C166.818 37.2104 166.789 37.0625 166.73 36.9298C166.671 36.7944 166.577 36.6866 166.448 36.6065C166.322 36.5263 166.158 36.4862 165.957 36.4862C165.661 36.4862 165.432 36.5664 165.268 36.7267C165.107 36.887 164.995 37.1026 164.934 37.3734Z" fill="#04294F"/>
<path d="M162.8 40.0017C162.551 40.0017 162.348 39.9519 162.192 39.8525C162.039 39.753 161.927 39.6258 161.854 39.471C161.784 39.3163 161.749 39.1532 161.749 38.9818V36.5151H161.117L161.194 35.8228H161.749V34.8568L162.591 34.7656V35.8228H163.566V36.5151H162.591V38.5424C162.591 38.7801 162.604 38.9528 162.631 39.0606C162.658 39.1656 162.724 39.232 162.829 39.2596C162.933 39.2872 163.1 39.3011 163.328 39.3011H163.553L163.481 40.0017H162.8Z" fill="#04294F"/>
<path d="M159.578 39.9188V35.8228H160.42V39.9188H159.578ZM159.578 35.0268V34.1147H160.42V35.0268H159.578Z" fill="#04294F"/>
<path d="M152.461 39.9189V35.8229H153.15L153.262 36.5277L153.041 36.3743C153.248 36.1642 153.464 36.0067 153.689 35.9017C153.915 35.7967 154.162 35.7441 154.43 35.7441C154.634 35.7441 154.822 35.7773 154.994 35.8436C155.166 35.9072 155.317 36.0109 155.449 36.1546C155.583 36.2983 155.69 36.489 155.771 36.7267L155.554 36.6479C155.677 36.366 155.861 36.1449 156.105 35.9846C156.352 35.8243 156.661 35.7441 157.031 35.7441C157.378 35.7441 157.665 35.8146 157.893 35.9556C158.124 36.0938 158.296 36.2983 158.409 36.5691C158.521 36.8372 158.578 37.1675 158.578 37.56V39.9189H157.736V37.5973C157.736 37.2131 157.669 36.9326 157.535 36.7557C157.403 36.5761 157.186 36.4862 156.882 36.4862C156.692 36.4862 156.535 36.518 156.411 36.5816C156.288 36.6424 156.191 36.7267 156.121 36.8345C156.054 36.9395 156.007 37.057 155.98 37.1869C155.954 37.3168 155.94 37.4494 155.94 37.5849V39.9189H155.099V37.6843C155.099 37.3831 155.065 37.1454 154.998 36.9713C154.931 36.7972 154.833 36.6728 154.704 36.5982C154.575 36.5235 154.419 36.4862 154.237 36.4862C153.984 36.4862 153.766 36.5443 153.58 36.6603C153.398 36.7764 153.262 36.9506 153.174 37.1827L153.303 36.7142V39.9189H152.461Z" fill="#04294F"/>
<path d="M150.577 39.9188V35.8228H151.418V39.9188H150.577ZM150.234 35.1636V34.5956L151.773 33.6753V34.55L150.234 35.1636Z" fill="#04294F"/>
<path d="M146.617 39.9188V34.1147H147.495V39.1062H149.968V39.9188H146.617Z" fill="#04294F"/>
<path d="M140.023 39.9189V35.8229H140.744L140.845 36.5982L140.587 36.3909C140.805 36.1587 141.031 35.9929 141.268 35.8934C141.504 35.7939 141.751 35.7441 142.009 35.7441C142.559 35.7441 142.959 35.9183 143.209 36.2665C143.458 36.612 143.583 37.0722 143.583 37.647V39.9189H142.742V37.6843C142.742 37.2725 142.67 36.9699 142.528 36.7764C142.386 36.583 142.146 36.4862 141.807 36.4862C141.558 36.4862 141.338 36.5457 141.147 36.6645C140.959 36.7806 140.822 36.9547 140.736 37.1869L140.865 36.7101V39.9189H140.023Z" fill="#04294F"/>
<path d="M138.141 39.9188V35.8228H138.982V39.9188H138.141ZM138.141 35.0268V34.1147H138.982V35.0268H138.141Z" fill="#04294F"/>
<path d="M135.192 40.035C134.961 40.035 134.727 40.0143 134.488 39.9728C134.251 39.9341 134.033 39.8844 133.831 39.8235C133.63 39.7627 133.465 39.7019 133.336 39.6411L133.449 38.6793C133.612 38.7622 133.796 38.8424 134 38.9198C134.207 38.9972 134.425 39.0621 134.653 39.1146C134.881 39.1671 135.112 39.1934 135.345 39.1934C135.67 39.1934 135.929 39.1312 136.123 39.0068C136.316 38.8797 136.412 38.6835 136.412 38.4181C136.412 38.2191 136.361 38.0575 136.259 37.9331C136.157 37.806 136.003 37.6968 135.796 37.6056C135.592 37.5116 135.332 37.4135 135.015 37.3112C134.712 37.2117 134.434 37.0956 134.182 36.963C133.932 36.8303 133.732 36.6576 133.582 36.4448C133.431 36.2292 133.356 35.9487 133.356 35.6032C133.356 35.2909 133.433 35.0145 133.586 34.774C133.741 34.5308 133.969 34.3415 134.27 34.2061C134.571 34.0679 134.943 33.9988 135.386 33.9988C135.745 33.9988 136.08 34.0402 136.388 34.1232C136.7 34.2033 136.96 34.2904 137.169 34.3843L137.081 35.3296C136.769 35.1582 136.474 35.0338 136.195 34.9564C135.918 34.8791 135.634 34.8404 135.341 34.8404C135.025 34.8404 134.768 34.8984 134.572 35.0145C134.379 35.1306 134.282 35.3144 134.282 35.5659C134.282 35.7483 134.329 35.8961 134.423 36.0095C134.517 36.12 134.655 36.2154 134.838 36.2955C135.02 36.3757 135.243 36.4586 135.506 36.5443C135.906 36.6686 136.246 36.8096 136.525 36.9671C136.804 37.1247 137.016 37.3168 137.161 37.5434C137.309 37.77 137.383 38.0506 137.383 38.385C137.383 38.6006 137.345 38.8065 137.27 39.0027C137.198 39.1989 137.077 39.3758 136.908 39.5333C136.739 39.6881 136.513 39.8111 136.231 39.9023C135.952 39.9908 135.606 40.035 135.192 40.035Z" fill="#04294F"/>
<path d="M128.423 40.0018C128.192 40.0018 127.986 39.9521 127.806 39.8526C127.627 39.7503 127.484 39.6094 127.38 39.4297C127.278 39.2501 127.227 39.0386 127.227 38.7954C127.227 38.5632 127.278 38.3656 127.38 38.2026C127.482 38.0367 127.617 37.8985 127.786 37.788C127.955 37.6774 128.141 37.5904 128.342 37.5268C128.546 37.4605 128.753 37.4121 128.962 37.3817C129.172 37.3513 129.366 37.3347 129.546 37.332C129.543 37.0086 129.476 36.7902 129.345 36.6769C129.213 36.5609 129.013 36.5028 128.745 36.5028C128.584 36.5028 128.419 36.5277 128.249 36.5774C128.08 36.6244 127.89 36.7142 127.678 36.8469L127.581 36.1421C127.774 36.0205 127.99 35.9238 128.229 35.8519C128.468 35.7801 128.715 35.7441 128.97 35.7441C129.29 35.7441 129.554 35.8022 129.763 35.9183C129.973 36.0343 130.13 36.2264 130.235 36.4945C130.339 36.7626 130.392 37.1219 130.392 37.5724V38.5259C130.392 38.7249 130.4 38.8811 130.416 38.9944C130.435 39.105 130.474 39.1837 130.533 39.2307C130.592 39.2777 130.682 39.3012 130.802 39.3012H130.899L130.794 40.0018H130.609C130.41 40.0018 130.249 39.9797 130.126 39.9355C130.005 39.8913 129.907 39.8291 129.832 39.7489C129.757 39.666 129.694 39.5679 129.643 39.4546C129.5 39.6204 129.323 39.7531 129.111 39.8526C128.902 39.9521 128.672 40.0018 128.423 40.0018ZM128.68 39.3219C128.831 39.3219 128.985 39.2832 129.143 39.2058C129.304 39.1284 129.44 39.0207 129.55 38.8825V37.9207C129.249 37.9345 128.99 37.9718 128.773 38.0326C128.558 38.0906 128.392 38.1791 128.274 38.2979C128.158 38.4168 128.1 38.5688 128.1 38.754C128.1 38.9529 128.151 39.098 128.253 39.1893C128.355 39.2777 128.498 39.3219 128.68 39.3219Z" fill="#04294F"/>
<path d="M123.328 39.9188L125.656 36.1959L125.756 36.569H123.481V35.8228H126.787L124.456 39.5456L124.339 39.1725H126.771V39.9188H123.328Z" fill="#04294F"/>
<path d="M119.086 39.9189V35.8229H119.807L119.907 36.5982L119.65 36.3909C119.867 36.1587 120.094 35.9929 120.33 35.8934C120.566 35.7939 120.813 35.7441 121.071 35.7441C121.621 35.7441 122.021 35.9183 122.271 36.2665C122.521 36.612 122.646 37.0722 122.646 37.647V39.9189H121.804V37.6843C121.804 37.2725 121.733 36.9699 121.591 36.7764C121.448 36.583 121.208 36.4862 120.87 36.4862C120.62 36.4862 120.4 36.5457 120.209 36.6645C120.022 36.7806 119.885 36.9547 119.799 37.1869L119.928 36.7101V39.9189H119.086Z" fill="#04294F"/>
<path d="M115.977 40.0018C115.746 40.0018 115.541 39.9521 115.361 39.8526C115.181 39.7503 115.039 39.6094 114.934 39.4297C114.832 39.2501 114.781 39.0386 114.781 38.7954C114.781 38.5632 114.832 38.3656 114.934 38.2026C115.036 38.0367 115.172 37.8985 115.341 37.788C115.51 37.6774 115.695 37.5904 115.897 37.5268C116.101 37.4605 116.307 37.4121 116.517 37.3817C116.726 37.3513 116.921 37.3347 117.101 37.332C117.098 37.0086 117.031 36.7902 116.899 36.6769C116.768 36.5609 116.568 36.5028 116.299 36.5028C116.138 36.5028 115.973 36.5277 115.804 36.5774C115.635 36.6244 115.444 36.7142 115.232 36.8469L115.136 36.1421C115.329 36.0205 115.545 35.9238 115.784 35.8519C116.023 35.7801 116.27 35.7441 116.525 35.7441C116.844 35.7441 117.109 35.8022 117.318 35.9183C117.528 36.0343 117.685 36.2264 117.789 36.4945C117.894 36.7626 117.946 37.1219 117.946 37.5724V38.5259C117.946 38.7249 117.954 38.8811 117.971 38.9944C117.989 39.105 118.028 39.1837 118.087 39.2307C118.146 39.2777 118.236 39.3012 118.357 39.3012H118.454L118.349 40.0018H118.164C117.965 40.0018 117.804 39.9797 117.681 39.9355C117.56 39.8913 117.462 39.8291 117.387 39.7489C117.311 39.666 117.248 39.5679 117.197 39.4546C117.055 39.6204 116.878 39.7531 116.666 39.8526C116.456 39.9521 116.227 40.0018 115.977 40.0018ZM116.235 39.3219C116.385 39.3219 116.54 39.2832 116.698 39.2058C116.859 39.1284 116.995 39.0207 117.105 38.8825V37.9207C116.804 37.9345 116.545 37.9718 116.328 38.0326C116.113 38.0906 115.946 38.1791 115.828 38.2979C115.713 38.4168 115.655 38.5688 115.655 38.754C115.655 38.9529 115.706 39.098 115.808 39.1893C115.91 39.2777 116.052 39.3219 116.235 39.3219Z" fill="#04294F"/>
<path d="M113.203 39.9188V35.8228H114.045V39.9188H113.203ZM113.203 35.0268V34.1147H114.045V35.0268H113.203Z" fill="#04294F"/>
<path d="M110.644 39.9188V36.5152H110.008L110.1 35.8228H110.644V34.8942C110.644 34.5321 110.742 34.2433 110.938 34.0277C111.137 33.8094 111.425 33.7002 111.804 33.7002C111.935 33.7002 112.053 33.7085 112.158 33.7251C112.263 33.7417 112.357 33.7651 112.44 33.7955L112.339 34.5086C112.286 34.4893 112.231 34.4741 112.174 34.463C112.118 34.452 112.051 34.4464 111.973 34.4464C111.823 34.4464 111.703 34.4893 111.615 34.5749C111.529 34.6606 111.486 34.803 111.486 35.002V35.8228H112.472V36.5152H111.486V39.9188H110.644Z" fill="#04294F"/>
<path d="M105.867 39.9189V35.8229H106.588L106.689 36.5982L106.431 36.3909C106.648 36.1587 106.875 35.9929 107.111 35.8934C107.348 35.7939 107.595 35.7441 107.852 35.7441C108.403 35.7441 108.803 35.9183 109.052 36.2665C109.302 36.612 109.427 37.0722 109.427 37.647V39.9189H108.585V37.6843C108.585 37.2725 108.514 36.9699 108.372 36.7764C108.23 36.583 107.989 36.4862 107.651 36.4862C107.401 36.4862 107.181 36.5457 106.991 36.6645C106.803 36.7806 106.666 36.9547 106.58 37.1869L106.709 36.7101V39.9189H105.867Z" fill="#04294F"/>
<path d="M103.056 40.0018C102.635 40.0018 102.273 39.9065 101.973 39.7158C101.675 39.5223 101.447 39.2653 101.288 38.9447C101.133 38.6213 101.055 38.2647 101.055 37.875C101.055 37.4826 101.133 37.1247 101.288 36.8013C101.447 36.4779 101.675 36.2209 101.973 36.0302C102.273 35.8367 102.635 35.74 103.056 35.74C103.48 35.74 103.841 35.8367 104.139 36.0302C104.44 36.2209 104.668 36.4779 104.824 36.8013C104.982 37.1247 105.061 37.4826 105.061 37.875C105.061 38.2647 104.982 38.6213 104.824 38.9447C104.668 39.2653 104.44 39.5223 104.139 39.7158C103.841 39.9065 103.48 40.0018 103.056 40.0018ZM103.056 39.2597C103.426 39.2597 103.71 39.1354 103.906 38.8866C104.104 38.6379 104.204 38.3007 104.204 37.875C104.204 37.4467 104.104 37.1067 103.906 36.8552C103.71 36.6037 103.426 36.4779 103.056 36.4779C102.691 36.4779 102.409 36.6037 102.21 36.8552C102.012 37.1067 101.912 37.4467 101.912 37.875C101.912 38.3007 102.012 38.6379 102.21 38.8866C102.409 39.1354 102.691 39.2597 103.056 39.2597Z" fill="#04294F"/>
<path d="M99.0506 40.035C98.4922 40.035 97.9969 39.9106 97.5647 39.6619C97.1351 39.4131 96.7982 39.0635 96.5539 38.613C96.3096 38.1597 96.1875 37.6277 96.1875 37.0169C96.1875 36.4061 96.311 35.8754 96.558 35.4249C96.8076 34.9716 97.1513 34.6206 97.5888 34.3719C98.0264 34.1232 98.5244 33.9988 99.0828 33.9988C99.3727 33.9988 99.6452 34.0306 99.9002 34.0941C100.155 34.1577 100.378 34.2392 100.569 34.3387L100.472 35.1886C100.271 35.0891 100.055 35.0062 99.8237 34.9399C99.5929 34.8735 99.3432 34.8404 99.0747 34.8404C98.6506 34.8404 98.2962 34.9371 98.0117 35.1306C97.7271 35.3213 97.511 35.5811 97.3633 35.91C97.2184 36.2361 97.1459 36.6051 97.1459 37.0169C97.1459 37.4287 97.217 37.799 97.3593 38.1279C97.5043 38.4541 97.7177 38.7139 97.9996 38.9073C98.2841 39.098 98.6358 39.1934 99.0546 39.1934C99.3311 39.1934 99.5821 39.163 99.8076 39.1022C100.036 39.0386 100.257 38.9543 100.472 38.8493L100.569 39.6992C100.362 39.7959 100.131 39.8761 99.8761 39.9396C99.6237 40.0032 99.3486 40.035 99.0506 40.035Z" fill="#04294F"/>
<path d="M93.0613 40.8516H92.5983L92.9124 39.9188H92.5781V38.9363H93.5204V39.8276L93.0613 40.8516Z" fill="#04294F"/>
<path d="M91.5503 40.0017C91.3033 40.0017 91.1046 39.9534 90.9543 39.8566C90.804 39.7599 90.6939 39.6341 90.6241 39.4794C90.557 39.3218 90.5234 39.1546 90.5234 38.9777V33.7002H91.365V38.5507C91.365 38.7773 91.3785 38.9446 91.4053 39.0523C91.4348 39.1574 91.4899 39.2251 91.5704 39.2555C91.6536 39.2859 91.7758 39.3011 91.9369 39.3011L91.8402 40.0017H91.5503Z" fill="#04294F"/>
<path d="M88.2287 40.0018C87.7535 40.0018 87.3562 39.9037 87.0368 39.7075C86.7173 39.5085 86.4757 39.2459 86.3119 38.9198C86.1508 38.5909 86.0703 38.2316 86.0703 37.8419C86.0703 37.4632 86.1455 37.115 86.2958 36.7972C86.4488 36.4793 86.6703 36.225 86.9602 36.0343C87.2529 35.8409 87.6059 35.7441 88.0193 35.7441C88.371 35.7441 88.6757 35.8174 88.9334 35.9639C89.1911 36.1103 89.3884 36.3149 89.5253 36.5774C89.6649 36.84 89.7347 37.1468 89.7347 37.4978C89.7347 37.5696 89.7307 37.6443 89.7226 37.7217C89.7173 37.799 89.7065 37.8806 89.6904 37.9663H86.9401C86.975 38.2896 87.0582 38.5467 87.1898 38.7374C87.3213 38.9253 87.4851 39.0594 87.681 39.1395C87.877 39.2197 88.0891 39.2597 88.3173 39.2597C88.5213 39.2597 88.7227 39.2362 88.9213 39.1893C89.12 39.1395 89.3065 39.069 89.481 38.9778L89.5575 39.6867C89.4045 39.7614 89.2166 39.8332 88.9938 39.9023C88.771 39.9687 88.5159 40.0018 88.2287 40.0018ZM86.9884 37.3734H88.873C88.873 37.2104 88.8435 37.0625 88.7844 36.9298C88.7253 36.7944 88.6314 36.6866 88.5025 36.6065C88.3763 36.5263 88.2126 36.4862 88.0112 36.4862C87.7159 36.4862 87.4864 36.5664 87.3227 36.7267C87.1616 36.887 87.0502 37.1026 86.9884 37.3734Z" fill="#04294F"/>
<path d="M81.6953 41.9254V35.8229H82.3638L82.5208 36.6479L82.2792 36.5152C82.451 36.2803 82.6537 36.0938 82.8873 35.9556C83.1208 35.8146 83.4067 35.7441 83.745 35.7441C84.1181 35.7441 84.4362 35.8409 84.6993 36.0343C84.9624 36.225 85.1624 36.4821 85.2993 36.8055C85.4362 37.1261 85.5047 37.4826 85.5047 37.8751C85.5047 38.2648 85.4376 38.6213 85.3034 38.9447C85.1718 39.2653 84.9758 39.5223 84.7154 39.7158C84.455 39.9065 84.1315 40.0018 83.745 40.0018C83.4309 40.0018 83.1584 39.9452 82.9275 39.8318C82.6993 39.7158 82.5101 39.5389 82.3597 39.3012L82.5369 39.1312V41.9254H81.6953ZM83.6 39.2597C83.9275 39.2597 84.1826 39.1354 84.3651 38.8866C84.5503 38.6379 84.643 38.3007 84.643 37.8751C84.643 37.4467 84.5503 37.1081 84.3651 36.8593C84.1826 36.6106 83.9275 36.4862 83.6 36.4862C83.3772 36.4862 83.1826 36.5401 83.0161 36.6479C82.8524 36.7557 82.7235 36.9132 82.6295 37.1205C82.5383 37.3251 82.4926 37.5766 82.4926 37.8751C82.4926 38.1791 82.5383 38.4333 82.6295 38.6379C82.7235 38.8424 82.8524 38.9972 83.0161 39.1022C83.1826 39.2072 83.3772 39.2597 83.6 39.2597Z" fill="#04294F"/>
<path d="M78.5866 40.0018C78.3557 40.0018 78.1504 39.9521 77.9705 39.8526C77.7906 39.7503 77.6483 39.6094 77.5436 39.4297C77.4416 39.2501 77.3906 39.0386 77.3906 38.7954C77.3906 38.5632 77.4416 38.3656 77.5436 38.2026C77.6457 38.0367 77.7812 37.8985 77.9504 37.788C78.1195 37.6774 78.3047 37.5904 78.5061 37.5268C78.7101 37.4605 78.9168 37.4121 79.1262 37.3817C79.3356 37.3513 79.5302 37.3347 79.7101 37.332C79.7074 37.0086 79.6403 36.7902 79.5087 36.6769C79.3772 36.5609 79.1772 36.5028 78.9087 36.5028C78.7477 36.5028 78.5826 36.5277 78.4134 36.5774C78.2443 36.6244 78.0537 36.7142 77.8416 36.8469L77.745 36.1421C77.9383 36.0205 78.1544 35.9238 78.3933 35.8519C78.6322 35.7801 78.8792 35.7441 79.1342 35.7441C79.4537 35.7441 79.7181 35.8022 79.9275 35.9183C80.1369 36.0343 80.294 36.2264 80.3987 36.4945C80.5034 36.7626 80.5557 37.1219 80.5557 37.5724V38.5259C80.5557 38.7249 80.5638 38.8811 80.5799 38.9944C80.5987 39.105 80.6376 39.1837 80.6967 39.2307C80.7557 39.2777 80.8457 39.3012 80.9665 39.3012H81.0631L80.9584 40.0018H80.7732C80.5745 40.0018 80.4134 39.9797 80.29 39.9355C80.1691 39.8913 80.0712 39.8291 79.996 39.7489C79.9208 39.666 79.8577 39.5679 79.8067 39.4546C79.6644 39.6204 79.4873 39.7531 79.2752 39.8526C79.0658 39.9521 78.8363 40.0018 78.5866 40.0018ZM78.8443 39.3219C78.9947 39.3219 79.149 39.2832 79.3074 39.2058C79.4685 39.1284 79.604 39.0207 79.7141 38.8825V37.9207C79.4134 37.9345 79.1544 37.9718 78.9369 38.0326C78.7222 38.0906 78.5557 38.1791 78.4376 38.2979C78.3222 38.4168 78.2644 38.5688 78.2644 38.754C78.2644 38.9529 78.3155 39.098 78.4175 39.1893C78.5195 39.2777 78.6618 39.3219 78.8443 39.3219Z" fill="#04294F"/>
<path d="M73.1875 39.9188V34.1147H75.1123C75.5123 34.1147 75.8586 34.1797 76.1512 34.3096C76.4439 34.4367 76.668 34.6385 76.8237 34.9149C76.9821 35.1913 77.0613 35.5506 77.0613 35.9928C77.0613 36.435 76.9821 36.797 76.8237 37.079C76.668 37.3581 76.4439 37.564 76.1512 37.6967C75.8613 37.8293 75.5177 37.8957 75.1204 37.8957H74.0895V39.9188H73.1875ZM74.0895 37.1121H75.0036C75.3902 37.1121 75.6801 37.0223 75.8734 36.8426C76.0667 36.663 76.1633 36.3839 76.1633 36.0052C76.1633 35.6238 76.0694 35.3447 75.8814 35.1678C75.6935 34.9881 75.3982 34.8983 74.9955 34.8983H74.0895V37.1121Z" fill="#04294F"/>
<path d="M66.5859 39.9189V35.8229H67.3067L67.4074 36.5982L67.1497 36.3909C67.3671 36.1587 67.594 35.9929 67.8302 35.8934C68.0665 35.7939 68.3134 35.7441 68.5712 35.7441C69.1215 35.7441 69.5215 35.9183 69.7712 36.2665C70.0208 36.612 70.1457 37.0722 70.1457 37.647V39.9189H69.3041V37.6843C69.3041 37.2725 69.2329 36.9699 69.0906 36.7764C68.9483 36.583 68.7081 36.4862 68.3698 36.4862C68.1202 36.4862 67.9 36.5457 67.7094 36.6645C67.5215 36.7806 67.3846 36.9547 67.2987 37.1869L67.4275 36.7101V39.9189H66.5859Z" fill="#04294F"/>
<path d="M64.7031 39.9188V35.8228H65.5447V39.9188H64.7031ZM64.7031 35.0268V34.1147H65.5447V35.0268H64.7031Z" fill="#04294F"/>
<path d="M61.7548 40.035C61.5239 40.035 61.289 40.0143 61.0501 39.9728C60.8139 39.9341 60.5951 39.8844 60.3937 39.8235C60.1924 39.7627 60.0273 39.7019 59.8984 39.6411L60.0112 38.6793C60.1749 38.7622 60.3588 38.8424 60.5629 38.9198C60.7696 38.9972 60.987 39.0621 61.2152 39.1146C61.4434 39.1671 61.6743 39.1934 61.9078 39.1934C62.2327 39.1934 62.4917 39.1312 62.685 39.0068C62.8783 38.8797 62.9749 38.6835 62.9749 38.4181C62.9749 38.2191 62.9239 38.0575 62.8219 37.9331C62.7199 37.806 62.5655 37.6968 62.3588 37.6056C62.1548 37.5116 61.8944 37.4135 61.5776 37.3112C61.2743 37.2117 60.9964 37.0956 60.7441 36.963C60.4944 36.8303 60.2944 36.6576 60.1441 36.4448C59.9937 36.2292 59.9186 35.9487 59.9186 35.6032C59.9186 35.2909 59.9951 35.0145 60.1481 34.774C60.3038 34.5308 60.532 34.3415 60.8327 34.2061C61.1333 34.0679 61.5051 33.9988 61.9481 33.9988C62.3078 33.9988 62.6421 34.0402 62.9508 34.1232C63.2622 34.2033 63.5226 34.2904 63.732 34.3843L63.6434 35.3296C63.332 35.1582 63.0367 35.0338 62.7575 34.9564C62.481 34.8791 62.1964 34.8404 61.9038 34.8404C61.587 34.8404 61.3306 34.8984 61.1347 35.0145C60.9414 35.1306 60.8447 35.3144 60.8447 35.5659C60.8447 35.7483 60.8917 35.8961 60.9857 36.0095C61.0796 36.12 61.2179 36.2154 61.4004 36.2955C61.583 36.3757 61.8058 36.4586 62.0689 36.5443C62.4689 36.6686 62.8085 36.8096 63.0877 36.9671C63.3669 37.1247 63.579 37.3168 63.7239 37.5434C63.8716 37.77 63.9454 38.0506 63.9454 38.385C63.9454 38.6006 63.9078 38.8065 63.8327 39.0027C63.7602 39.1989 63.6394 39.3758 63.4702 39.5333C63.3011 39.6881 63.0756 39.8111 62.7937 39.9023C62.5145 39.9908 62.1682 40.035 61.7548 40.035Z" fill="#04294F"/>
<path d="M55.7789 40.0018C55.4648 40.0018 55.1964 39.9659 54.9736 39.894C54.7507 39.8222 54.5668 39.7462 54.4219 39.666L54.5105 38.8783C54.6474 38.9751 54.8205 39.069 55.0299 39.1602C55.242 39.2487 55.4809 39.2929 55.7467 39.2929C55.9776 39.2929 56.1534 39.2542 56.2742 39.1768C56.3977 39.0967 56.4595 38.9792 56.4595 38.8244C56.4595 38.6973 56.4232 38.595 56.3507 38.5176C56.2782 38.4375 56.1829 38.3712 56.0648 38.3186C55.9467 38.2661 55.8219 38.2178 55.6903 38.1735C55.4836 38.1044 55.2876 38.0243 55.1024 37.9331C54.9199 37.8419 54.7709 37.7203 54.6554 37.5683C54.5427 37.4135 54.4863 37.209 54.4863 36.9547C54.4863 36.7336 54.54 36.5304 54.6474 36.3453C54.7548 36.1601 54.9172 36.0136 55.1346 35.9058C55.3548 35.7953 55.634 35.74 55.9722 35.74C56.2299 35.74 56.4487 35.769 56.6286 35.8271C56.8111 35.8823 56.9735 35.9487 57.1158 36.026L57.0272 36.793C56.885 36.6797 56.7306 36.5857 56.5642 36.5111C56.4004 36.4337 56.2084 36.395 55.9883 36.395C55.7843 36.395 55.6219 36.4365 55.5011 36.5194C55.3803 36.5995 55.3199 36.7225 55.3199 36.8884C55.3199 37.0652 55.391 37.1938 55.5333 37.2739C55.6756 37.3541 55.897 37.4467 56.1977 37.5517C56.3346 37.5987 56.4688 37.6553 56.6004 37.7217C56.7319 37.7852 56.8514 37.8626 56.9588 37.9538C57.0688 38.045 57.1561 38.1583 57.2205 38.2938C57.285 38.4292 57.3172 38.5909 57.3172 38.7788C57.3172 38.9944 57.2662 39.1948 57.1641 39.38C57.0648 39.5651 56.9024 39.7158 56.6769 39.8318C56.4541 39.9452 56.1548 40.0018 55.7789 40.0018Z" fill="#04294F"/>
<path d="M51.8373 40.0018C51.4158 40.0018 51.0547 39.9065 50.7541 39.7158C50.4561 39.5223 50.2279 39.2653 50.0695 38.9447C49.9138 38.6213 49.8359 38.2647 49.8359 37.875C49.8359 37.4826 49.9138 37.1247 50.0695 36.8013C50.2279 36.4779 50.4561 36.2209 50.7541 36.0302C51.0547 35.8367 51.4158 35.74 51.8373 35.74C52.2614 35.74 52.6225 35.8367 52.9205 36.0302C53.2212 36.2209 53.4493 36.4779 53.605 36.8013C53.7634 37.1247 53.8426 37.4826 53.8426 37.875C53.8426 38.2647 53.7634 38.6213 53.605 38.9447C53.4493 39.2653 53.2212 39.5223 52.9205 39.7158C52.6225 39.9065 52.2614 40.0018 51.8373 40.0018ZM51.8373 39.2597C52.2077 39.2597 52.491 39.1354 52.6869 38.8866C52.8856 38.6379 52.9849 38.3007 52.9849 37.875C52.9849 37.4467 52.8856 37.1067 52.6869 36.8552C52.491 36.6037 52.2077 36.4779 51.8373 36.4779C51.4722 36.4779 51.1903 36.6037 50.9916 36.8552C50.793 37.1067 50.6937 37.4467 50.6937 37.875C50.6937 38.3007 50.793 38.6379 50.9916 38.8866C51.1903 39.1354 51.4722 39.2597 51.8373 39.2597Z" fill="#04294F"/>
<path d="M47.4766 39.9189V35.8229H48.2175L48.2779 36.395C48.439 36.196 48.6108 36.0371 48.7933 35.9183C48.9786 35.7994 49.1786 35.74 49.3933 35.74C49.4578 35.74 49.5182 35.7469 49.5745 35.7607L49.5021 36.6603C49.4564 36.6493 49.4094 36.641 49.3611 36.6355C49.3155 36.6299 49.2672 36.6272 49.2162 36.6272C49.0229 36.6272 48.8457 36.6728 48.6846 36.764C48.5262 36.8524 48.4135 36.9533 48.3464 37.0666V39.9189H47.4766Z" fill="#04294F"/>
<path d="M46.0035 40.0017C45.7539 40.0017 45.5512 39.9519 45.3955 39.8525C45.2425 39.753 45.1297 39.6258 45.0572 39.471C44.9874 39.3163 44.9525 39.1532 44.9525 38.9818V36.5151H44.3203L44.3968 35.8228H44.9525V34.8568L45.7941 34.7656V35.8228H46.7686V36.5151H45.7941V38.5424C45.7941 38.7801 45.8076 38.9528 45.8344 39.0606C45.8612 39.1656 45.927 39.232 46.0317 39.2596C46.1364 39.2872 46.3029 39.3011 46.531 39.3011H46.7565L46.6841 40.0017H46.0035Z" fill="#04294F"/>
<path d="M42.3492 40.0018C42.0351 40.0018 41.7667 39.9659 41.5439 39.894C41.321 39.8222 41.1372 39.7462 40.9922 39.666L41.0808 38.8783C41.2177 38.9751 41.3908 39.069 41.6002 39.1602C41.8123 39.2487 42.0512 39.2929 42.317 39.2929C42.5479 39.2929 42.7237 39.2542 42.8445 39.1768C42.968 39.0967 43.0298 38.9792 43.0298 38.8244C43.0298 38.6973 42.9935 38.595 42.921 38.5176C42.8486 38.4375 42.7533 38.3712 42.6351 38.3186C42.517 38.2661 42.3922 38.2178 42.2606 38.1735C42.0539 38.1044 41.858 38.0243 41.6727 37.9331C41.4902 37.8419 41.3412 37.7203 41.2257 37.5683C41.113 37.4135 41.0566 37.209 41.0566 36.9547C41.0566 36.7336 41.1103 36.5304 41.2177 36.3453C41.3251 36.1601 41.4875 36.0136 41.7049 35.9058C41.9251 35.7953 42.2043 35.74 42.5425 35.74C42.8002 35.74 43.019 35.769 43.1989 35.8271C43.3814 35.8823 43.5439 35.9487 43.6861 36.026L43.5975 36.793C43.4553 36.6797 43.3009 36.5857 43.1345 36.5111C42.9707 36.4337 42.7788 36.395 42.5586 36.395C42.3546 36.395 42.1922 36.4365 42.0714 36.5194C41.9506 36.5995 41.8902 36.7225 41.8902 36.8884C41.8902 37.0652 41.9613 37.1938 42.1036 37.2739C42.2459 37.3541 42.4674 37.4467 42.768 37.5517C42.9049 37.5987 43.0392 37.6553 43.1707 37.7217C43.3022 37.7852 43.4217 37.8626 43.5291 37.9538C43.6392 38.045 43.7264 38.1583 43.7908 38.2938C43.8553 38.4292 43.8875 38.5909 43.8875 38.7788C43.8875 38.9944 43.8365 39.1948 43.7345 39.38C43.6351 39.5651 43.4727 39.7158 43.2472 39.8318C43.0244 39.9452 42.7251 40.0018 42.3492 40.0018Z" fill="#04294F"/>
<path d="M39.3359 39.9188V35.8228H40.1775V39.9188H39.3359ZM39.3359 35.0268V34.1147H40.1775V35.0268H39.3359Z" fill="#04294F"/>
<path d="M36.6615 42.0001C36.2964 42.0001 35.973 41.9531 35.6911 41.8591C35.4092 41.7651 35.1877 41.6283 35.0266 41.4487C34.8683 41.2718 34.7891 41.0548 34.7891 40.7978C34.7891 40.5822 34.8481 40.3943 34.9662 40.234C35.0844 40.0764 35.2495 39.9438 35.4615 39.836C35.3434 39.7697 35.2508 39.6909 35.1837 39.5997C35.1193 39.5057 35.087 39.4021 35.087 39.2887C35.087 39.1616 35.1233 39.0483 35.1958 38.9488C35.2709 38.8493 35.3823 38.7678 35.53 38.7042C35.3152 38.5605 35.1515 38.3698 35.0387 38.1321C34.926 37.8944 34.8696 37.6332 34.8696 37.3485C34.8696 37.0528 34.9327 36.7833 35.0589 36.5401C35.1877 36.2941 35.373 36.0993 35.6146 35.9556C35.8589 35.8118 36.1542 35.74 36.5005 35.74C36.683 35.74 36.8535 35.7662 37.0119 35.8188C37.1729 35.8685 37.3179 35.939 37.4468 36.0302C37.5515 35.9694 37.683 35.9183 37.8414 35.8768C38.0025 35.8326 38.181 35.8105 38.377 35.8105C38.4038 35.8105 38.4293 35.8105 38.4535 35.8105C38.4776 35.8105 38.5018 35.8105 38.526 35.8105L38.4454 36.3701C38.4025 36.3701 38.3595 36.3701 38.3166 36.3701C38.2736 36.3701 38.2307 36.3701 38.1877 36.3701C38.1609 36.3701 38.1112 36.3729 38.0387 36.3784C37.9662 36.384 37.8964 36.3936 37.8293 36.4075C37.9287 36.5401 38.0038 36.6866 38.0548 36.8469C38.1058 37.0072 38.1313 37.1744 38.1313 37.3485C38.1313 37.6553 38.0669 37.9317 37.938 38.1777C37.8119 38.4237 37.6266 38.6199 37.3823 38.7664C37.1407 38.9129 36.8468 38.9861 36.5005 38.9861C36.4146 38.9861 36.33 38.9806 36.2468 38.9695C36.1662 38.9557 36.0884 38.9391 36.0132 38.9198C35.9166 38.9529 35.8683 39.0124 35.8683 39.098C35.8683 39.1644 35.9072 39.2197 35.985 39.2639C36.0629 39.3053 36.1864 39.3399 36.3555 39.3675L37.2575 39.5043C37.687 39.5707 38.0199 39.6978 38.2562 39.8857C38.4951 40.0737 38.6146 40.3418 38.6146 40.69C38.6146 40.9692 38.5354 41.2055 38.377 41.3989C38.2213 41.5952 37.9971 41.7444 37.7045 41.8467C37.4119 41.9489 37.0642 42.0001 36.6615 42.0001ZM36.7179 41.287C37.075 41.287 37.3474 41.24 37.5354 41.146C37.7233 41.0548 37.8172 40.9166 37.8172 40.7315C37.8172 40.5767 37.7555 40.4592 37.632 40.3791C37.5085 40.2989 37.3233 40.2367 37.0763 40.1925L36.0535 40.0267C35.9139 40.0875 35.7931 40.169 35.6911 40.2713C35.5917 40.3763 35.5421 40.5035 35.5421 40.6527C35.5421 40.871 35.6468 41.0313 35.8562 41.1336C36.0683 41.2359 36.3555 41.287 36.7179 41.287ZM36.5005 38.3186C36.7797 38.3186 36.9904 38.2302 37.1327 38.0533C37.2776 37.8737 37.3501 37.6401 37.3501 37.3527C37.3501 37.0708 37.2776 36.8428 37.1327 36.6686C36.9904 36.4918 36.7797 36.4033 36.5005 36.4033C36.2213 36.4033 36.0092 36.4918 35.8642 36.6686C35.7219 36.8428 35.6508 37.0708 35.6508 37.3527C35.6508 37.6401 35.7219 37.8737 35.8642 38.0533C36.0092 38.2302 36.2213 38.3186 36.5005 38.3186Z" fill="#04294F"/>
<path d="M32.7678 40.0018C32.2926 40.0018 31.8953 39.9037 31.5758 39.7075C31.2564 39.5085 31.0147 39.2459 30.851 38.9198C30.6899 38.5909 30.6094 38.2316 30.6094 37.8419C30.6094 37.4632 30.6845 37.115 30.8349 36.7972C30.9879 36.4793 31.2094 36.225 31.4993 36.0343C31.7919 35.8409 32.1449 35.7441 32.5584 35.7441C32.91 35.7441 33.2147 35.8174 33.4725 35.9639C33.7302 36.1103 33.9275 36.3149 34.0644 36.5774C34.204 36.84 34.2738 37.1468 34.2738 37.4978C34.2738 37.5696 34.2698 37.6443 34.2617 37.7217C34.2563 37.799 34.2456 37.8806 34.2295 37.9663H31.4792C31.5141 38.2896 31.5973 38.5467 31.7288 38.7374C31.8604 38.9253 32.0241 39.0594 32.2201 39.1395C32.4161 39.2197 32.6282 39.2597 32.8563 39.2597C33.0604 39.2597 33.2617 39.2362 33.4604 39.1893C33.659 39.1395 33.8456 39.069 34.0201 38.9778L34.0966 39.6867C33.9436 39.7614 33.7557 39.8332 33.5329 39.9023C33.31 39.9687 33.055 40.0018 32.7678 40.0018ZM31.5275 37.3734H33.4121C33.4121 37.2104 33.3825 37.0625 33.3235 36.9298C33.2644 36.7944 33.1704 36.6866 33.0416 36.6065C32.9154 36.5263 32.7517 36.4862 32.5503 36.4862C32.255 36.4862 32.0255 36.5664 31.8617 36.7267C31.7006 36.887 31.5892 37.1026 31.5275 37.3734Z" fill="#04294F"/>
<path d="M26.1328 39.9188V34.1147H28.0617C28.4536 34.1147 28.7945 34.1783 29.0845 34.3055C29.3771 34.4298 29.6039 34.6219 29.765 34.8817C29.9261 35.1415 30.0066 35.4732 30.0066 35.8767C30.0066 36.2857 29.9207 36.6215 29.7489 36.8841C29.5798 37.1439 29.3422 37.3498 29.0362 37.5018L30.3046 39.9188H29.2778L28.1583 37.7008C28.1503 37.7008 28.1435 37.7008 28.1382 37.7008C28.1328 37.7008 28.1261 37.7008 28.118 37.7008H27.0348V39.9188H26.1328ZM27.0348 36.9173H27.9409C28.3409 36.9173 28.6321 36.8247 28.8147 36.6395C28.9999 36.4543 29.0925 36.2083 29.0925 35.9016C29.0925 35.5837 29.0013 35.3377 28.8187 35.1636C28.6362 34.9867 28.3489 34.8983 27.957 34.8983H27.0348V36.9173Z" fill="#04294F"/>
</svg>
