<svg width="591" height="140" viewBox="0 0 591 140" fill="none" xmlns="http://www.w3.org/2000/svg">
<circle cx="12.304" cy="77.3055" r="12.304" fill="#027DA2"/>
<path d="M0.015625 12.5C0.015625 5.59644 5.61207 0 12.5156 0H62.4482C69.3518 0 74.9482 5.59644 74.9482 12.5C74.9482 19.4036 69.3518 25 62.4482 25H12.5156C5.61207 25 0.015625 19.4036 0.015625 12.5Z" fill="#00B3B7"/>
<path d="M0.015625 44.7202C0.015625 37.8167 5.61207 32.2202 12.5156 32.2202H36.7089C43.6124 32.2202 49.2088 37.8167 49.2088 44.7202C49.2088 51.6238 43.6124 57.2202 36.7088 57.2202H12.5156C5.61206 57.2202 0.015625 51.6238 0.015625 44.7202Z" fill="#04D9DE"/>
<path d="M590.192 65.3686H544.472C546.177 72.5091 552.358 76.9852 560.777 76.9852C566.639 76.9852 570.156 75.3866 573.78 71.1236H589.233C588.274 74.1077 586.782 76.5589 584.543 79.3298C578.362 86.5768 570.795 89.9872 561.097 89.9872C543.086 89.9872 529.125 76.5589 529.125 59.2939C529.125 41.9224 542.873 28.1743 560.245 28.1743C577.829 28.1743 590.725 41.6026 590.725 59.9333C590.725 62.0648 590.618 63.3437 590.192 65.3686ZM544.045 52.8995H576.764C574.952 45.3327 569.197 41.1763 560.458 41.1763C552.038 41.1763 546.283 45.2261 544.045 52.8995Z" fill="white"/>
<path d="M499.125 88.6017V29.5598H512.127V35.3148C515.857 29.7729 518.841 28.1743 524.916 28.1743H525.982V41.8158C517.456 42.0289 513.299 46.6116 513.299 55.777V88.6017H499.125Z" fill="white"/>
<path d="M487.611 29.5598V88.6017H474.609V80.9284C468.961 87.4294 463.313 89.9872 455 89.9872C437.735 89.9872 425.266 77.0918 425.266 59.2939C425.266 41.2829 437.841 28.1743 455.319 28.1743C463.845 28.1743 469.707 30.9452 474.609 37.4462V29.5598H487.611ZM456.598 41.1763C446.687 41.1763 439.547 48.9562 439.547 59.6136C439.547 69.9513 446.687 76.9852 457.025 76.9852C467.256 76.9852 474.183 69.8447 474.183 59.2939C474.183 48.6365 466.936 41.1763 456.598 41.1763Z" fill="white"/>
<path d="M363.149 88.6015L342.047 29.5596H357.287L367.838 65.5816L377.749 29.5596H389.046L398.744 65.5816L409.508 29.5596H424.642L403.327 88.6015H394.481L383.291 50.3415L371.888 88.6015H363.149Z" fill="white"/>
<path d="M335.961 9.84326V88.6014H322.959V80.9281C317.204 87.3225 311.449 89.9869 303.456 89.9869C286.724 89.9869 273.828 76.5585 273.828 58.9738C273.828 41.2826 286.83 27.428 303.349 27.428C310.809 27.428 317.63 30.1989 321.786 34.7816V9.84326H335.961ZM305.161 40.43C295.569 40.43 288.109 48.3164 288.109 58.5475C288.109 68.8852 295.889 76.9848 305.694 76.9848C315.285 76.9848 322.852 68.9918 322.852 58.8673C322.852 48.2099 315.392 40.43 305.161 40.43Z" fill="white"/>
<path d="M236.793 28.1743C253.951 28.1743 267.913 42.1355 267.913 59.1873C267.913 76.1326 253.845 89.9872 236.58 89.9872C219.208 89.9872 205.141 76.1326 205.141 59.1873C205.141 41.9224 219.102 28.1743 236.793 28.1743ZM236.26 41.1763C227.095 41.1763 219.422 49.276 219.422 59.0808C219.422 68.9921 227.095 76.9852 236.473 76.9852C245.958 76.9852 253.632 68.9921 253.632 59.1873C253.632 49.0628 245.958 41.1763 236.26 41.1763Z" fill="white"/>
<path d="M168.106 28.1743C185.264 28.1743 199.225 42.1355 199.225 59.1873C199.225 76.1326 185.157 89.9872 167.892 89.9872C150.521 89.9872 136.453 76.1326 136.453 59.1873C136.453 41.9224 150.414 28.1743 168.106 28.1743ZM167.573 41.1763C158.407 41.1763 150.734 49.276 150.734 59.0808C150.734 68.9921 158.407 76.9852 167.786 76.9852C177.271 76.9852 184.944 68.9921 184.944 59.1873C184.944 49.0628 177.271 41.1763 167.573 41.1763Z" fill="white"/>
<path d="M88.7891 88.6014V9.84326H128.861V23.8044H103.39V42.3483H127.689V56.3095H103.39V88.6014H88.7891Z" fill="white"/>
<path d="M579.145 132.672C578.073 132.672 577.156 132.553 576.395 132.315C575.635 132.076 575.007 131.824 574.512 131.558L574.814 128.946C575.282 129.267 575.873 129.578 576.588 129.881C577.312 130.174 578.128 130.321 579.035 130.321C579.824 130.321 580.424 130.193 580.837 129.936C581.258 129.67 581.469 129.28 581.469 128.767C581.469 128.345 581.345 128.006 581.098 127.75C580.85 127.484 580.525 127.264 580.122 127.09C579.718 126.915 579.292 126.755 578.843 126.608C578.137 126.379 577.468 126.113 576.835 125.811C576.212 125.508 575.703 125.105 575.309 124.601C574.924 124.088 574.732 123.409 574.732 122.566C574.732 121.833 574.915 121.159 575.282 120.545C575.648 119.93 576.203 119.445 576.945 119.087C577.697 118.72 578.65 118.537 579.805 118.537C580.685 118.537 581.433 118.633 582.047 118.826C582.67 119.009 583.225 119.229 583.71 119.486L583.408 122.03C582.922 121.654 582.395 121.342 581.827 121.095C581.268 120.838 580.612 120.71 579.86 120.71C579.164 120.71 578.609 120.847 578.197 121.122C577.784 121.388 577.578 121.796 577.578 122.346C577.578 122.933 577.821 123.359 578.307 123.625C578.793 123.89 579.549 124.198 580.575 124.546C581.043 124.702 581.501 124.89 581.95 125.11C582.4 125.32 582.808 125.577 583.174 125.88C583.55 126.182 583.848 126.558 584.068 127.007C584.288 127.456 584.398 127.993 584.398 128.616C584.398 129.331 584.224 129.995 583.875 130.61C583.536 131.224 582.982 131.723 582.212 132.108C581.451 132.484 580.429 132.672 579.145 132.672Z" fill="white"/>
<path d="M567.429 132.672C565.806 132.672 564.449 132.347 563.359 131.696C562.268 131.036 561.443 130.165 560.884 129.083C560.334 127.992 560.059 126.801 560.059 125.508C560.059 124.252 560.315 123.097 560.829 122.043C561.351 120.989 562.107 120.146 563.097 119.513C564.097 118.872 565.302 118.551 566.714 118.551C567.914 118.551 568.955 118.794 569.835 119.28C570.715 119.765 571.389 120.444 571.856 121.315C572.333 122.185 572.571 123.203 572.571 124.367C572.571 124.605 572.557 124.853 572.53 125.11C572.512 125.366 572.475 125.637 572.42 125.921H563.029C563.148 126.993 563.432 127.846 563.881 128.478C564.33 129.102 564.889 129.546 565.559 129.812C566.228 130.078 566.952 130.211 567.731 130.211C568.428 130.211 569.115 130.133 569.794 129.977C570.472 129.812 571.109 129.578 571.705 129.276L571.966 131.627C571.444 131.875 570.802 132.113 570.041 132.342C569.28 132.562 568.409 132.672 567.429 132.672ZM563.194 123.955H569.629C569.629 123.414 569.528 122.923 569.326 122.483C569.124 122.034 568.804 121.677 568.364 121.411C567.933 121.145 567.374 121.012 566.686 121.012C565.678 121.012 564.894 121.278 564.335 121.81C563.785 122.341 563.404 123.056 563.194 123.955Z" fill="white"/>
<path d="M555.896 132.672C555.043 132.672 554.351 132.507 553.82 132.177C553.297 131.847 552.912 131.425 552.665 130.912C552.426 130.399 552.307 129.858 552.307 129.289V121.108H550.148L550.41 118.812H552.307V115.608L555.181 115.306V118.812H558.508V121.108H555.181V127.832C555.181 128.62 555.227 129.193 555.318 129.551C555.41 129.899 555.635 130.119 555.992 130.211C556.35 130.302 556.918 130.348 557.697 130.348H558.467L558.22 132.672H555.896Z" fill="white"/>
<path d="M544.891 132.397V118.812H547.764V132.397H544.891ZM544.891 116.172V113.147H547.764V116.172H544.891Z" fill="white"/>
<path d="M520.605 132.397V118.812H522.957L523.342 121.15L522.585 120.641C523.291 119.944 524.029 119.422 524.799 119.073C525.569 118.725 526.413 118.551 527.329 118.551C528.026 118.551 528.668 118.661 529.254 118.881C529.841 119.092 530.359 119.435 530.808 119.912C531.266 120.389 531.633 121.021 531.908 121.81L531.165 121.548C531.587 120.613 532.215 119.88 533.049 119.348C533.893 118.817 534.947 118.551 536.212 118.551C537.394 118.551 538.375 118.785 539.154 119.252C539.943 119.71 540.529 120.389 540.914 121.287C541.299 122.176 541.492 123.272 541.492 124.573V132.397H538.618V124.697C538.618 123.423 538.389 122.492 537.93 121.906C537.481 121.31 536.739 121.012 535.703 121.012C535.052 121.012 534.516 121.117 534.094 121.328C533.673 121.53 533.343 121.81 533.104 122.167C532.875 122.515 532.715 122.905 532.623 123.336C532.531 123.767 532.485 124.207 532.485 124.656V132.397H529.612V124.986C529.612 123.987 529.497 123.198 529.268 122.621C529.039 122.043 528.704 121.631 528.264 121.383C527.824 121.136 527.293 121.012 526.669 121.012C525.808 121.012 525.06 121.205 524.428 121.59C523.805 121.975 523.342 122.552 523.039 123.322L523.479 121.768V132.397H520.605Z" fill="white"/>
<path d="M514.18 132.397V118.812H517.054V132.397H514.18ZM513.012 116.626V114.742L518.264 111.689V114.591L513.012 116.626Z" fill="white"/>
<path d="M500.652 132.397V113.147H503.65V129.702H512.092V132.397H500.652Z" fill="white"/>
<path d="M478.121 132.397V118.812H480.582L480.926 121.383L480.046 120.696C480.789 119.926 481.563 119.376 482.37 119.046C483.177 118.716 484.02 118.551 484.9 118.551C486.779 118.551 488.145 119.128 488.997 120.283C489.85 121.429 490.276 122.955 490.276 124.862V132.397H487.402V124.986C487.402 123.62 487.159 122.616 486.674 121.975C486.188 121.333 485.367 121.012 484.212 121.012C483.36 121.012 482.608 121.209 481.957 121.603C481.316 121.988 480.848 122.566 480.555 123.336L480.995 121.755V132.397H478.121Z" fill="white"/>
<path d="M471.699 132.397V118.812H474.573V132.397H471.699ZM471.699 116.172V113.147H474.573V116.172H471.699Z" fill="white"/>
<path d="M461.643 132.782C460.855 132.782 460.053 132.713 459.237 132.576C458.431 132.448 457.683 132.283 456.996 132.081C456.308 131.879 455.745 131.678 455.305 131.476L455.69 128.286C456.249 128.561 456.877 128.827 457.573 129.083C458.279 129.34 459.022 129.556 459.801 129.73C460.58 129.904 461.368 129.991 462.166 129.991C463.275 129.991 464.16 129.785 464.82 129.372C465.48 128.951 465.81 128.3 465.81 127.42C465.81 126.76 465.636 126.223 465.287 125.811C464.939 125.389 464.412 125.027 463.706 124.725C463.009 124.413 462.12 124.088 461.038 123.748C460.003 123.418 459.054 123.033 458.192 122.593C457.34 122.153 456.657 121.581 456.143 120.875C455.63 120.16 455.373 119.229 455.373 118.083C455.373 117.048 455.635 116.131 456.157 115.333C456.689 114.527 457.468 113.899 458.495 113.45C459.521 112.991 460.791 112.762 462.303 112.762C463.532 112.762 464.673 112.9 465.727 113.175C466.791 113.441 467.68 113.729 468.395 114.041L468.092 117.176C467.029 116.608 466.021 116.195 465.067 115.938C464.123 115.682 463.151 115.553 462.152 115.553C461.071 115.553 460.195 115.746 459.526 116.131C458.866 116.516 458.536 117.126 458.536 117.96C458.536 118.565 458.696 119.055 459.017 119.431C459.338 119.798 459.81 120.114 460.433 120.38C461.057 120.646 461.818 120.921 462.716 121.205C464.082 121.617 465.241 122.085 466.195 122.607C467.148 123.13 467.872 123.767 468.367 124.518C468.871 125.27 469.123 126.201 469.123 127.31C469.123 128.025 468.995 128.708 468.738 129.358C468.491 130.009 468.078 130.596 467.501 131.118C466.923 131.632 466.153 132.04 465.191 132.342C464.238 132.636 463.055 132.782 461.643 132.782Z" fill="white"/>
<path d="M438.517 132.672C437.729 132.672 437.028 132.507 436.414 132.177C435.799 131.838 435.314 131.37 434.956 130.775C434.608 130.179 434.434 129.477 434.434 128.671C434.434 127.901 434.608 127.245 434.956 126.705C435.304 126.155 435.767 125.696 436.345 125.33C436.922 124.963 437.555 124.674 438.242 124.463C438.939 124.243 439.645 124.083 440.36 123.982C441.075 123.881 441.739 123.826 442.354 123.817C442.344 122.745 442.115 122.02 441.666 121.645C441.217 121.26 440.534 121.067 439.617 121.067C439.067 121.067 438.504 121.15 437.926 121.315C437.349 121.47 436.698 121.768 435.974 122.208L435.644 119.871C436.304 119.467 437.042 119.147 437.857 118.908C438.673 118.67 439.517 118.551 440.387 118.551C441.478 118.551 442.381 118.743 443.096 119.128C443.811 119.513 444.347 120.15 444.705 121.04C445.062 121.929 445.241 123.12 445.241 124.615V127.777C445.241 128.437 445.269 128.955 445.324 129.331C445.388 129.697 445.521 129.959 445.722 130.115C445.924 130.27 446.231 130.348 446.644 130.348H446.974L446.616 132.672H445.984C445.305 132.672 444.755 132.599 444.334 132.452C443.921 132.305 443.587 132.099 443.33 131.833C443.073 131.558 442.858 131.233 442.684 130.857C442.198 131.407 441.593 131.847 440.869 132.177C440.154 132.507 439.37 132.672 438.517 132.672ZM439.397 130.417C439.911 130.417 440.438 130.289 440.979 130.032C441.529 129.775 441.992 129.418 442.367 128.96V125.77C441.341 125.815 440.456 125.939 439.714 126.141C438.98 126.333 438.412 126.627 438.009 127.021C437.614 127.415 437.417 127.919 437.417 128.533C437.417 129.193 437.592 129.675 437.94 129.977C438.288 130.27 438.774 130.417 439.397 130.417Z" fill="white"/>
<path d="M421.133 132.397L429.08 120.05L429.424 121.287H421.655V118.812H432.944L424.983 131.16L424.584 129.922H432.889V132.397H421.133Z" fill="white"/>
<path d="M406.648 132.397V118.812H409.11L409.453 121.383L408.573 120.696C409.316 119.926 410.091 119.376 410.897 119.046C411.704 118.716 412.547 118.551 413.427 118.551C415.306 118.551 416.672 119.128 417.525 120.283C418.377 121.429 418.803 122.955 418.803 124.862V132.397H415.93V124.986C415.93 123.62 415.687 122.616 415.201 121.975C414.715 121.333 413.895 121.012 412.74 121.012C411.887 121.012 411.136 121.209 410.485 121.603C409.843 121.988 409.376 122.566 409.082 123.336L409.522 121.755V132.397H406.648Z" fill="white"/>
<path d="M396.037 132.672C395.249 132.672 394.547 132.507 393.933 132.177C393.319 131.838 392.833 131.37 392.476 130.775C392.127 130.179 391.953 129.477 391.953 128.671C391.953 127.901 392.127 127.245 392.476 126.705C392.824 126.155 393.287 125.696 393.864 125.33C394.442 124.963 395.074 124.674 395.762 124.463C396.459 124.243 397.164 124.083 397.879 123.982C398.594 123.881 399.259 123.826 399.873 123.817C399.864 122.745 399.635 122.02 399.186 121.645C398.736 121.26 398.054 121.067 397.137 121.067C396.587 121.067 396.023 121.15 395.446 121.315C394.868 121.47 394.217 121.768 393.493 122.208L393.163 119.871C393.823 119.467 394.561 119.147 395.377 118.908C396.193 118.67 397.036 118.551 397.907 118.551C398.998 118.551 399.901 118.743 400.616 119.128C401.331 119.513 401.867 120.15 402.224 121.04C402.582 121.929 402.761 123.12 402.761 124.615V127.777C402.761 128.437 402.788 128.955 402.843 129.331C402.907 129.697 403.04 129.959 403.242 130.115C403.444 130.27 403.751 130.348 404.163 130.348H404.493L404.136 132.672H403.503C402.825 132.672 402.275 132.599 401.853 132.452C401.441 132.305 401.106 132.099 400.849 131.833C400.593 131.558 400.377 131.233 400.203 130.857C399.717 131.407 399.112 131.847 398.388 132.177C397.673 132.507 396.889 132.672 396.037 132.672ZM396.917 130.417C397.43 130.417 397.957 130.289 398.498 130.032C399.048 129.775 399.511 129.418 399.887 128.96V125.77C398.86 125.815 397.976 125.939 397.233 126.141C396.5 126.333 395.931 126.627 395.528 127.021C395.134 127.415 394.937 127.919 394.937 128.533C394.937 129.193 395.111 129.675 395.459 129.977C395.808 130.27 396.294 130.417 396.917 130.417Z" fill="white"/>
<path d="M386.547 132.397V118.812H389.421V132.397H386.547ZM386.547 116.172V113.147H389.421V116.172H386.547Z" fill="white"/>
<path d="M377.821 132.397V121.108H375.648L375.965 118.812H377.821V115.732C377.821 114.531 378.156 113.573 378.825 112.858C379.503 112.134 380.488 111.772 381.781 111.772C382.23 111.772 382.633 111.799 382.991 111.854C383.348 111.909 383.669 111.987 383.953 112.088L383.61 114.453C383.426 114.389 383.238 114.339 383.046 114.302C382.853 114.265 382.624 114.247 382.358 114.247C381.845 114.247 381.437 114.389 381.135 114.673C380.841 114.957 380.695 115.429 380.695 116.089V118.812H384.063V121.108H380.695V132.397H377.821Z" fill="white"/>
<path d="M361.504 132.397V118.812H363.965L364.309 121.383L363.429 120.696C364.171 119.926 364.946 119.376 365.753 119.046C366.559 118.716 367.403 118.551 368.283 118.551C370.162 118.551 371.528 119.128 372.38 120.283C373.233 121.429 373.659 122.955 373.659 124.862V132.397H370.785V124.986C370.785 123.62 370.542 122.616 370.056 121.975C369.571 121.333 368.75 121.012 367.595 121.012C366.743 121.012 365.991 121.209 365.34 121.603C364.698 121.988 364.231 122.566 363.938 123.336L364.378 121.755V132.397H361.504Z" fill="white"/>
<path d="M351.904 132.672C350.465 132.672 349.232 132.356 348.205 131.723C347.188 131.082 346.409 130.229 345.868 129.166C345.336 128.093 345.07 126.911 345.07 125.618C345.07 124.317 345.336 123.13 345.868 122.057C346.409 120.985 347.188 120.132 348.205 119.5C349.232 118.858 350.465 118.537 351.904 118.537C353.352 118.537 354.585 118.858 355.603 119.5C356.629 120.132 357.409 120.985 357.94 122.057C358.481 123.13 358.752 124.317 358.752 125.618C358.752 126.911 358.481 128.093 357.94 129.166C357.409 130.229 356.629 131.082 355.603 131.723C354.585 132.356 353.352 132.672 351.904 132.672ZM351.904 130.211C353.169 130.211 354.136 129.798 354.805 128.973C355.484 128.148 355.823 127.03 355.823 125.618C355.823 124.198 355.484 123.07 354.805 122.236C354.136 121.402 353.169 120.985 351.904 120.985C350.657 120.985 349.695 121.402 349.017 122.236C348.338 123.07 347.999 124.198 347.999 125.618C347.999 127.03 348.338 128.148 349.017 128.973C349.695 129.798 350.657 130.211 351.904 130.211Z" fill="white"/>
<path d="M338.222 132.782C336.315 132.782 334.624 132.37 333.148 131.545C331.681 130.72 330.531 129.56 329.697 128.066C328.862 126.563 328.445 124.798 328.445 122.772C328.445 120.746 328.867 118.986 329.71 117.492C330.563 115.989 331.736 114.825 333.23 114C334.724 113.175 336.425 112.762 338.332 112.762C339.322 112.762 340.252 112.868 341.123 113.078C341.994 113.289 342.754 113.56 343.405 113.89L343.075 116.708C342.388 116.378 341.65 116.103 340.862 115.883C340.073 115.663 339.221 115.553 338.304 115.553C336.856 115.553 335.646 115.874 334.674 116.516C333.702 117.148 332.964 118.01 332.46 119.101C331.965 120.183 331.718 121.406 331.718 122.772C331.718 124.138 331.961 125.366 332.447 126.457C332.942 127.539 333.67 128.401 334.633 129.042C335.604 129.675 336.805 129.991 338.235 129.991C339.179 129.991 340.037 129.89 340.807 129.688C341.586 129.478 342.342 129.198 343.075 128.85L343.405 131.668C342.699 131.989 341.911 132.255 341.04 132.466C340.179 132.677 339.239 132.782 338.222 132.782Z" fill="white"/>
<path d="M317.767 135.491H316.186L317.258 132.397H316.117V129.138H319.335V132.094L317.767 135.491Z" fill="white"/>
<path d="M312.623 132.672C311.78 132.672 311.102 132.512 310.588 132.191C310.075 131.87 309.699 131.453 309.461 130.939C309.232 130.417 309.117 129.862 309.117 129.276V111.772H311.991V127.859C311.991 128.611 312.037 129.166 312.128 129.523C312.229 129.872 312.417 130.096 312.692 130.197C312.976 130.298 313.393 130.348 313.943 130.348L313.613 132.672H312.623Z" fill="white"/>
<path d="M301.276 132.672C299.654 132.672 298.297 132.347 297.206 131.696C296.115 131.036 295.29 130.165 294.731 129.083C294.181 127.992 293.906 126.801 293.906 125.508C293.906 124.252 294.163 123.097 294.676 122.043C295.199 120.989 295.955 120.146 296.945 119.513C297.944 118.872 299.15 118.551 300.561 118.551C301.762 118.551 302.802 118.794 303.682 119.28C304.562 119.765 305.236 120.444 305.704 121.315C306.18 122.185 306.419 123.203 306.419 124.367C306.419 124.605 306.405 124.853 306.378 125.11C306.359 125.366 306.323 125.637 306.268 125.921H296.876C296.995 126.993 297.28 127.846 297.729 128.478C298.178 129.102 298.737 129.546 299.406 129.812C300.075 130.078 300.8 130.211 301.579 130.211C302.275 130.211 302.963 130.133 303.641 129.977C304.32 129.812 304.957 129.578 305.553 129.276L305.814 131.627C305.291 131.875 304.65 132.113 303.889 132.342C303.128 132.562 302.257 132.672 301.276 132.672ZM297.041 123.955H303.476C303.476 123.414 303.375 122.923 303.174 122.483C302.972 122.034 302.651 121.677 302.211 121.411C301.78 121.145 301.221 121.012 300.534 121.012C299.525 121.012 298.742 121.278 298.182 121.81C297.632 122.341 297.252 123.056 297.041 123.955Z" fill="white"/>
<path d="M278.961 139.052V118.812H281.243L281.78 121.548L280.955 121.108C281.541 120.329 282.233 119.71 283.031 119.252C283.828 118.785 284.805 118.551 285.96 118.551C287.234 118.551 288.32 118.872 289.218 119.513C290.117 120.146 290.8 120.998 291.267 122.071C291.735 123.134 291.968 124.317 291.968 125.618C291.968 126.911 291.739 128.093 291.281 129.166C290.832 130.229 290.163 131.082 289.273 131.723C288.384 132.356 287.28 132.672 285.96 132.672C284.887 132.672 283.957 132.484 283.168 132.108C282.389 131.723 281.743 131.137 281.23 130.348L281.835 129.785V139.052H278.961ZM285.465 130.211C286.583 130.211 287.454 129.798 288.077 128.973C288.71 128.148 289.026 127.03 289.026 125.618C289.026 124.197 288.71 123.075 288.077 122.25C287.454 121.425 286.583 121.012 285.465 121.012C284.704 121.012 284.039 121.191 283.471 121.548C282.912 121.906 282.472 122.428 282.151 123.116C281.839 123.794 281.683 124.628 281.683 125.618C281.683 126.627 281.839 127.47 282.151 128.148C282.472 128.827 282.912 129.34 283.471 129.688C284.039 130.037 284.704 130.211 285.465 130.211Z" fill="white"/>
<path d="M268.349 132.672C267.561 132.672 266.86 132.507 266.246 132.177C265.631 131.838 265.146 131.37 264.788 130.775C264.44 130.179 264.266 129.477 264.266 128.671C264.266 127.901 264.44 127.245 264.788 126.705C265.136 126.155 265.599 125.696 266.177 125.33C266.754 124.963 267.387 124.674 268.074 124.463C268.771 124.243 269.477 124.083 270.192 123.982C270.907 123.881 271.571 123.826 272.186 123.817C272.176 122.745 271.947 122.02 271.498 121.645C271.049 121.26 270.366 121.067 269.449 121.067C268.899 121.067 268.336 121.15 267.758 121.315C267.181 121.47 266.53 121.768 265.806 122.208L265.476 119.871C266.136 119.467 266.874 119.147 267.689 118.908C268.505 118.67 269.349 118.551 270.219 118.551C271.31 118.551 272.213 118.743 272.928 119.128C273.643 119.513 274.179 120.15 274.537 121.04C274.894 121.929 275.073 123.12 275.073 124.615V127.777C275.073 128.437 275.101 128.955 275.156 129.331C275.22 129.697 275.353 129.959 275.554 130.115C275.756 130.27 276.063 130.348 276.476 130.348H276.806L276.448 132.672H275.816C275.137 132.672 274.587 132.599 274.166 132.452C273.753 132.305 273.419 132.099 273.162 131.833C272.905 131.558 272.69 131.233 272.516 130.857C272.03 131.407 271.425 131.847 270.701 132.177C269.986 132.507 269.202 132.672 268.349 132.672ZM269.229 130.417C269.743 130.417 270.27 130.289 270.811 130.032C271.361 129.775 271.824 129.418 272.199 128.96V125.77C271.173 125.815 270.288 125.939 269.546 126.141C268.812 126.333 268.244 126.627 267.841 127.021C267.446 127.415 267.249 127.919 267.249 128.533C267.249 129.193 267.424 129.675 267.772 129.977C268.12 130.27 268.606 130.417 269.229 130.417Z" fill="white"/>
<path d="M249.902 132.397V113.147H256.475C257.841 113.147 259.023 113.362 260.022 113.793C261.022 114.215 261.787 114.884 262.319 115.801C262.859 116.717 263.13 117.909 263.13 119.376C263.13 120.842 262.859 122.043 262.319 122.978C261.787 123.904 261.022 124.587 260.022 125.027C259.032 125.467 257.859 125.687 256.502 125.687H252.982V132.397H249.902ZM252.982 123.088H256.104C257.424 123.088 258.414 122.79 259.074 122.194C259.734 121.599 260.064 120.673 260.064 119.417C260.064 118.152 259.743 117.226 259.101 116.639C258.459 116.044 257.451 115.746 256.076 115.746H252.982V123.088Z" fill="white"/>
<path d="M227.371 132.397V118.812H229.832L230.176 121.383L229.296 120.696C230.039 119.926 230.813 119.376 231.62 119.046C232.427 118.716 233.27 118.551 234.15 118.551C236.029 118.551 237.395 119.128 238.247 120.283C239.1 121.429 239.526 122.955 239.526 124.862V132.397H236.652V124.986C236.652 123.62 236.409 122.616 235.924 121.975C235.438 121.333 234.617 121.012 233.462 121.012C232.61 121.012 231.858 121.209 231.207 121.603C230.566 121.988 230.098 122.566 229.805 123.336L230.245 121.755V132.397H227.371Z" fill="white"/>
<path d="M220.945 132.397V118.812H223.819V132.397H220.945ZM220.945 116.172V113.147H223.819V116.172H220.945Z" fill="white"/>
<path d="M210.89 132.782C210.101 132.782 209.299 132.713 208.483 132.576C207.677 132.448 206.93 132.283 206.242 132.081C205.555 131.879 204.991 131.678 204.551 131.476L204.936 128.286C205.495 128.561 206.123 128.827 206.82 129.083C207.525 129.34 208.268 129.556 209.047 129.73C209.826 129.904 210.615 129.991 211.412 129.991C212.521 129.991 213.406 129.785 214.066 129.372C214.726 128.951 215.056 128.3 215.056 127.42C215.056 126.76 214.882 126.223 214.533 125.811C214.185 125.389 213.658 125.027 212.952 124.725C212.255 124.413 211.366 124.088 210.285 123.748C209.249 123.418 208.3 123.033 207.438 122.593C206.586 122.153 205.903 121.581 205.39 120.875C204.876 120.16 204.62 119.229 204.62 118.083C204.62 117.048 204.881 116.131 205.403 115.333C205.935 114.527 206.714 113.899 207.741 113.45C208.767 112.991 210.037 112.762 211.55 112.762C212.778 112.762 213.919 112.9 214.973 113.175C216.037 113.441 216.926 113.729 217.641 114.041L217.338 117.176C216.275 116.608 215.267 116.195 214.313 115.938C213.369 115.682 212.397 115.553 211.398 115.553C210.317 115.553 209.441 115.746 208.772 116.131C208.112 116.516 207.782 117.126 207.782 117.96C207.782 118.565 207.942 119.055 208.263 119.431C208.584 119.798 209.056 120.114 209.68 120.38C210.303 120.646 211.064 120.921 211.962 121.205C213.328 121.617 214.487 122.085 215.441 122.607C216.394 123.13 217.118 123.767 217.613 124.518C218.117 125.27 218.37 126.201 218.37 127.31C218.37 128.025 218.241 128.708 217.985 129.358C217.737 130.009 217.325 130.596 216.747 131.118C216.17 131.632 215.4 132.04 214.437 132.342C213.484 132.636 212.301 132.782 210.89 132.782Z" fill="white"/>
<path d="M190.47 132.672C189.397 132.672 188.481 132.553 187.72 132.315C186.959 132.076 186.331 131.824 185.836 131.558L186.138 128.946C186.606 129.267 187.197 129.578 187.912 129.881C188.636 130.174 189.452 130.321 190.36 130.321C191.148 130.321 191.748 130.193 192.161 129.936C192.583 129.67 192.793 129.28 192.793 128.767C192.793 128.345 192.67 128.006 192.422 127.75C192.175 127.484 191.849 127.264 191.446 127.09C191.043 126.915 190.616 126.755 190.167 126.608C189.461 126.379 188.792 126.113 188.16 125.811C187.536 125.508 187.028 125.105 186.633 124.601C186.248 124.088 186.056 123.409 186.056 122.566C186.056 121.833 186.239 121.159 186.606 120.545C186.973 119.93 187.527 119.445 188.27 119.087C189.021 118.72 189.975 118.537 191.13 118.537C192.01 118.537 192.757 118.633 193.371 118.826C193.994 119.009 194.549 119.229 195.035 119.486L194.732 122.03C194.246 121.654 193.719 121.342 193.151 121.095C192.592 120.838 191.936 120.71 191.185 120.71C190.488 120.71 189.933 120.847 189.521 121.122C189.108 121.388 188.902 121.796 188.902 122.346C188.902 122.933 189.145 123.359 189.631 123.625C190.117 123.89 190.873 124.198 191.9 124.546C192.367 124.702 192.826 124.89 193.275 125.11C193.724 125.32 194.132 125.577 194.498 125.88C194.874 126.182 195.172 126.558 195.392 127.007C195.612 127.456 195.722 127.993 195.722 128.616C195.722 129.331 195.548 129.995 195.2 130.61C194.861 131.224 194.306 131.723 193.536 132.108C192.775 132.484 191.753 132.672 190.47 132.672Z" fill="white"/>
<path d="M177.006 132.672C175.566 132.672 174.334 132.356 173.307 131.723C172.289 131.082 171.51 130.229 170.969 129.166C170.438 128.093 170.172 126.911 170.172 125.618C170.172 124.317 170.438 123.13 170.969 122.057C171.51 120.985 172.289 120.132 173.307 119.5C174.334 118.858 175.566 118.537 177.006 118.537C178.454 118.537 179.687 118.858 180.704 119.5C181.731 120.132 182.51 120.985 183.042 122.057C183.583 123.13 183.853 124.317 183.853 125.618C183.853 126.911 183.583 128.093 183.042 129.166C182.51 130.229 181.731 131.082 180.704 131.723C179.687 132.356 178.454 132.672 177.006 132.672ZM177.006 130.211C178.271 130.211 179.238 129.798 179.907 128.973C180.585 128.148 180.924 127.03 180.924 125.618C180.924 124.198 180.585 123.07 179.907 122.236C179.238 121.402 178.271 120.985 177.006 120.985C175.759 120.985 174.796 121.402 174.118 122.236C173.44 123.07 173.101 124.198 173.101 125.618C173.101 127.03 173.44 128.148 174.118 128.973C174.796 129.798 175.759 130.211 177.006 130.211Z" fill="white"/>
<path d="M162.129 132.397V118.812H164.659L164.865 120.71C165.415 120.05 166.002 119.523 166.625 119.128C167.258 118.734 167.941 118.537 168.674 118.537C168.894 118.537 169.1 118.56 169.293 118.606L169.045 121.59C168.889 121.553 168.729 121.525 168.564 121.507C168.408 121.489 168.243 121.48 168.069 121.48C167.409 121.48 166.804 121.631 166.254 121.933C165.713 122.227 165.328 122.561 165.099 122.937V132.397H162.129Z" fill="white"/>
<path d="M157.087 132.672C156.235 132.672 155.543 132.507 155.011 132.177C154.489 131.847 154.104 131.425 153.856 130.912C153.618 130.399 153.499 129.858 153.499 129.289V121.108H151.34L151.601 118.812H153.499V115.608L156.372 115.306V118.812H159.7V121.108H156.372V127.832C156.372 128.62 156.418 129.193 156.51 129.551C156.602 129.899 156.826 130.119 157.184 130.211C157.541 130.302 158.109 130.348 158.889 130.348H159.659L159.411 132.672H157.087Z" fill="white"/>
<path d="M144.603 132.672C143.53 132.672 142.613 132.553 141.853 132.315C141.092 132.076 140.464 131.824 139.969 131.558L140.271 128.946C140.739 129.267 141.33 129.578 142.045 129.881C142.769 130.174 143.585 130.321 144.493 130.321C145.281 130.321 145.881 130.193 146.294 129.936C146.715 129.67 146.926 129.28 146.926 128.767C146.926 128.345 146.802 128.006 146.555 127.75C146.308 127.484 145.982 127.264 145.579 127.09C145.175 126.915 144.749 126.755 144.3 126.608C143.594 126.379 142.925 126.113 142.292 125.811C141.669 125.508 141.16 125.105 140.766 124.601C140.381 124.088 140.189 123.409 140.189 122.566C140.189 121.833 140.372 121.159 140.739 120.545C141.105 119.93 141.66 119.445 142.403 119.087C143.154 118.72 144.108 118.537 145.263 118.537C146.143 118.537 146.89 118.633 147.504 118.826C148.127 119.009 148.682 119.229 149.168 119.486L148.865 122.03C148.379 121.654 147.852 121.342 147.284 121.095C146.725 120.838 146.069 120.71 145.318 120.71C144.621 120.71 144.066 120.847 143.654 121.122C143.241 121.388 143.035 121.796 143.035 122.346C143.035 122.933 143.278 123.359 143.764 123.625C144.25 123.89 145.006 124.198 146.033 124.546C146.5 124.702 146.958 124.89 147.408 125.11C147.857 125.32 148.265 125.577 148.631 125.88C149.007 126.182 149.305 126.558 149.525 127.007C149.745 127.456 149.855 127.993 149.855 128.616C149.855 129.331 149.681 129.995 149.333 130.61C148.993 131.224 148.439 131.723 147.669 132.108C146.908 132.484 145.886 132.672 144.603 132.672Z" fill="white"/>
<path d="M134.312 132.397V118.812H137.186V132.397H134.312ZM134.312 116.172V113.147H137.186V116.172H134.312Z" fill="white"/>
<path d="M125.195 139.3C123.948 139.3 122.843 139.144 121.881 138.832C120.918 138.52 120.162 138.067 119.612 137.471C119.071 136.884 118.801 136.165 118.801 135.312C118.801 134.597 119.002 133.974 119.406 133.442C119.809 132.92 120.373 132.48 121.097 132.122C120.694 131.902 120.377 131.641 120.148 131.338C119.928 131.027 119.818 130.683 119.818 130.307C119.818 129.885 119.942 129.51 120.19 129.18C120.446 128.85 120.827 128.579 121.331 128.368C120.597 127.892 120.038 127.259 119.653 126.471C119.268 125.683 119.076 124.816 119.076 123.872C119.076 122.891 119.291 121.998 119.722 121.191C120.162 120.375 120.795 119.729 121.62 119.252C122.454 118.775 123.462 118.537 124.645 118.537C125.268 118.537 125.85 118.624 126.391 118.798C126.941 118.963 127.436 119.197 127.876 119.5C128.233 119.298 128.682 119.128 129.223 118.991C129.773 118.844 130.383 118.771 131.052 118.771C131.144 118.771 131.231 118.771 131.313 118.771C131.396 118.771 131.478 118.771 131.561 118.771L131.286 120.627C131.139 120.627 130.992 120.627 130.846 120.627C130.699 120.627 130.552 120.627 130.406 120.627C130.314 120.627 130.145 120.636 129.897 120.655C129.65 120.673 129.411 120.705 129.182 120.751C129.521 121.191 129.778 121.677 129.952 122.208C130.126 122.74 130.213 123.295 130.213 123.872C130.213 124.89 129.993 125.806 129.553 126.622C129.122 127.438 128.49 128.089 127.656 128.575C126.831 129.06 125.827 129.303 124.645 129.303C124.351 129.303 124.062 129.285 123.778 129.248C123.503 129.203 123.237 129.148 122.981 129.083C122.651 129.193 122.486 129.39 122.486 129.675C122.486 129.895 122.619 130.078 122.885 130.225C123.15 130.362 123.572 130.477 124.15 130.568L127.23 131.022C128.696 131.242 129.833 131.664 130.64 132.287C131.455 132.91 131.863 133.8 131.863 134.955C131.863 135.88 131.593 136.664 131.052 137.306C130.52 137.957 129.755 138.452 128.756 138.791C127.757 139.13 126.57 139.3 125.195 139.3ZM125.387 136.935C126.606 136.935 127.537 136.779 128.178 136.467C128.82 136.165 129.141 135.706 129.141 135.092C129.141 134.579 128.93 134.189 128.508 133.923C128.087 133.658 127.454 133.451 126.611 133.305L123.118 132.755C122.642 132.956 122.229 133.227 121.881 133.566C121.542 133.914 121.372 134.336 121.372 134.831C121.372 135.555 121.73 136.087 122.445 136.426C123.169 136.765 124.15 136.935 125.387 136.935ZM124.645 127.09C125.598 127.09 126.317 126.796 126.803 126.21C127.298 125.614 127.546 124.839 127.546 123.886C127.546 122.951 127.298 122.195 126.803 121.617C126.317 121.03 125.598 120.737 124.645 120.737C123.691 120.737 122.967 121.03 122.472 121.617C121.986 122.195 121.743 122.951 121.743 123.886C121.743 124.839 121.986 125.614 122.472 126.21C122.967 126.796 123.691 127.09 124.645 127.09Z" fill="white"/>
<path d="M111.893 132.672C110.271 132.672 108.914 132.347 107.823 131.696C106.733 131.036 105.908 130.165 105.348 129.083C104.798 127.992 104.523 126.801 104.523 125.508C104.523 124.252 104.78 123.097 105.293 122.043C105.816 120.989 106.572 120.146 107.562 119.513C108.561 118.872 109.767 118.551 111.178 118.551C112.379 118.551 113.42 118.794 114.3 119.28C115.18 119.765 115.853 120.444 116.321 121.315C116.798 122.185 117.036 123.203 117.036 124.367C117.036 124.605 117.022 124.853 116.995 125.11C116.976 125.366 116.94 125.637 116.885 125.921H107.493C107.613 126.993 107.897 127.846 108.346 128.478C108.795 129.102 109.354 129.546 110.023 129.812C110.693 130.078 111.417 130.211 112.196 130.211C112.893 130.211 113.58 130.133 114.258 129.977C114.937 129.812 115.574 129.578 116.17 129.276L116.431 131.627C115.908 131.875 115.267 132.113 114.506 132.342C113.745 132.562 112.874 132.672 111.893 132.672ZM107.658 123.955H114.093C114.093 123.414 113.993 122.923 113.791 122.483C113.589 122.034 113.268 121.677 112.828 121.411C112.398 121.145 111.838 121.012 111.151 121.012C110.143 121.012 109.359 121.278 108.8 121.81C108.25 122.341 107.869 123.056 107.658 123.955Z" fill="white"/>
<path d="M89.2422 132.397V113.147H95.8284C97.1668 113.147 98.3309 113.358 99.3209 113.779C100.32 114.192 101.095 114.829 101.645 115.691C102.195 116.552 102.47 117.652 102.47 118.991C102.47 120.347 102.176 121.461 101.59 122.332C101.012 123.194 100.201 123.877 99.1559 124.381L103.487 132.397H99.9809L96.1584 125.041C96.1309 125.041 96.108 125.041 96.0897 125.041C96.0714 125.041 96.0484 125.041 96.0209 125.041H92.3222V132.397H89.2422ZM92.3222 122.442H95.4159C96.7818 122.442 97.7764 122.135 98.3997 121.521C99.0322 120.907 99.3484 120.091 99.3484 119.073C99.3484 118.019 99.0368 117.203 98.4134 116.626C97.7901 116.039 96.8093 115.746 95.4709 115.746H92.3222V122.442Z" fill="white"/>
</svg>
