<svg width="32" height="32" viewBox="0 0 32 32" fill="none" xmlns="http://www.w3.org/2000/svg">
<g clip-path="url(#clip0_2409_12593)">
<path d="M0 23.628V8.37222C0 3.76483 3.76471 0.00012207 8.37209 0.00012207H23.6279C28.2353 0.00012207 32 3.76483 32 8.37222V23.628C32 28.2354 28.2353 32.0001 23.6279 32.0001H8.37209C3.76471 32.0001 0 28.2354 0 23.628Z" fill="#3C5065"/>
<path d="M24.5708 13.68C24.5708 11.5569 22.8526 9.8387 20.7295 9.8387H10.9019C8.77874 9.8387 7.06055 11.5569 7.06055 13.68V18.2546C7.06055 20.3777 8.77874 22.0959 10.9019 22.0959H20.7295C22.8526 22.0959 24.5708 20.3777 24.5708 18.2546V13.68ZM18.7924 16.3066L14.382 18.4844C14.2069 18.5829 13.6269 18.4516 13.6269 18.2546V13.7785C13.6269 13.5815 14.2179 13.4502 14.393 13.5487L18.6064 15.8469C18.7815 15.9563 18.9675 16.2081 18.7924 16.3066Z" fill="white"/>
</g>
<defs>
<clipPath id="clip0_2409_12593">
<rect width="32" height="32" fill="white"/>
</clipPath>
</defs>
</svg>
